<?xml version="1.0" encoding="UTF-8" standalone="no"?>
<svg
   xmlns:dc="http://purl.org/dc/elements/1.1/"
   xmlns:cc="http://creativecommons.org/ns#"
   xmlns:rdf="http://www.w3.org/1999/02/22-rdf-syntax-ns#"
   xmlns:svg="http://www.w3.org/2000/svg"
   xmlns="http://www.w3.org/2000/svg"
   xmlns:sodipodi="http://sodipodi.sourceforge.net/DTD/sodipodi-0.dtd"
   xmlns:inkscape="http://www.inkscape.org/namespaces/inkscape"
   viewBox="0 0 432 432"
   version="1.1"
   id="svg25"
   sodipodi:docname="handelgroup_logo.svg"
   inkscape:version="1.0.2 (e86c870879, 2021-01-15, custom)">
  <metadata
     id="metadata29">
    <rdf:RDF>
      <cc:Work
         rdf:about="">
        <dc:format>image/svg+xml</dc:format>
        <dc:type
           rdf:resource="http://purl.org/dc/dcmitype/StillImage" />
      </cc:Work>
    </rdf:RDF>
  </metadata>
  <sodipodi:namedview
     pagecolor="#ffffff"
     bordercolor="#666666"
     borderopacity="1"
     objecttolerance="10"
     gridtolerance="10"
     guidetolerance="10"
     inkscape:pageopacity="0"
     inkscape:pageshadow="2"
     inkscape:window-width="2705"
     inkscape:window-height="1308"
     id="namedview27"
     showgrid="false"
     inkscape:zoom="2.3333333"
     inkscape:cx="293.08426"
     inkscape:cy="216"
     inkscape:window-x="587"
     inkscape:window-y="77"
     inkscape:window-maximized="0"
     inkscape:current-layer="svg25"
     inkscape:document-rotation="0" />
  <defs
     id="defs4">
    <style
       id="style2">.cls-1{fill:#d5c3b6;}.cls-2{fill:#3a2f2d;}.cls-3{fill:#6f8299;}.cls-4{fill:#6e8199;}.cls-5{fill:#eddcd1;}.cls-6{fill:#c7ac8e;}.cls-7{fill:#f7eee9;}</style>
  </defs>
  <polygon
     class="cls-1"
     points="64.39,216 140.2,347.29 291.8,347.29 367.61,216 291.8,84.71 140.2,84.71 "
     id="polygon6"
     style="fill:#e3dedb"
     inkscape:export-xdpi="300.207"
     inkscape:export-ydpi="300.207" />
  <path
     class="cls-2"
     d="M 294.13,351.33 H 137.87 L 59.74,216 137.87,80.67 H 294.13 L 372.26,216 Z m -151.6,-8.07 H 289.47 L 363,216 289.47,88.74 H 142.53 L 69.05,216 Z"
     id="path8"
     inkscape:export-xdpi="300.207"
     inkscape:export-ydpi="300.207" />
  <ellipse
     class="cls-3"
     cx="212.95"
     cy="296.76999"
     rx="74.949997"
     ry="15.83"
     id="ellipse10"
     style="fill:#008080"
     inkscape:export-xdpi="300.207"
     inkscape:export-ydpi="300.207" />
  <path
     class="cls-4"
     d="m 262.94,192.88 h 6.71 a 7.44,7.44 0 1 0 0,-4.51 h -6.71 a 50,50 0 0 0 -3,-15 l 6.11,-2.53 a 7.44,7.44 0 1 0 -1.59,-4.21 l -6.26,2.59 a 49.92,49.92 0 0 0 -8.5,-12.54 l 4.68,-4.68 a 7.43,7.43 0 1 0 -3.06,-3.31 l -4.82,4.82 a 49.85,49.85 0 0 0 -12.34,-8.22 l 2.56,-6.17 a 7.44,7.44 0 1 0 -4.16,-1.73 l -2.56,6.17 a 50.14,50.14 0 0 0 -14.79,-2.92 v -6.71 a 7.45,7.45 0 1 0 -4.51,0 v 6.71 a 50.07,50.07 0 0 0 -14.79,2.92 l -2.56,-6.18 a 7.44,7.44 0 1 0 -4.16,1.73 l 2.55,6.17 a 50,50 0 0 0 -12.33,8.22 l -4.82,-4.82 a 7.44,7.44 0 1 0 -3.06,3.31 l 4.68,4.68 a 50,50 0 0 0 -8.51,12.54 l -6.25,-2.59 a 7.45,7.45 0 1 0 -1.6,4.21 l 6.11,2.53 a 49.94,49.94 0 0 0 -3,15 h -6.71 a 7.45,7.45 0 1 0 0,4.51 H 163 a 49.67,49.67 0 0 0 2.94,14.88 l -6.15,2.54 a 7.44,7.44 0 1 0 1.68,4.19 l 6.2,-2.57 a 50.28,50.28 0 0 0 8.29,12.37 l -4.78,4.78 a 7.44,7.44 0 1 0 3.24,3.13 l 4.72,-4.72 a 50.17,50.17 0 0 0 12.58,8.53 l -2.56,6.18 a 7.42,7.42 0 1 0 4.17,1.71 l 2.55,-6.17 a 50,50 0 0 0 14.82,2.93 v 6.71 a 7.44,7.44 0 1 0 4.51,0 v -6.71 A 49.9,49.9 0 0 0 230,237.69 l 2.56,6.17 a 7.45,7.45 0 1 0 4.17,-1.71 L 234.19,236 a 50.17,50.17 0 0 0 12.61,-8.49 l 4.71,4.72 a 7.45,7.45 0 1 0 3.25,-3.13 L 250,224.29 a 50,50 0 0 0 8.28,-12.37 l 6.21,2.57 a 7.43,7.43 0 1 0 1.68,-4.19 L 260,207.76 a 50,50 0 0 0 2.94,-14.88 z"
     id="path12"
     style="fill:#008080"
     inkscape:export-xdpi="300.207"
     inkscape:export-ydpi="300.207" />
  <path
     class="cls-5"
     d="M 300.13,242.17 C 298,237 292.76,231 280.05,229.75 c 0,-0.37 0,-0.74 0,-1.1 a 5.67,5.67 0 0 0 -5.66,-5.43 H 150.63 a 4.77,4.77 0 0 0 -4.76,4.49 q -0.19,3.28 -0.08,6.63 a 67.17,67.17 0 0 0 117,42.53 23.51,23.51 0 0 0 5.54,0.6 40.85,40.85 0 0 0 8.24,-0.92 c 7.33,-1.59 13.84,-4.8 17.86,-8.82 5.64,-5.67 9.33,-16.73 5.7,-25.56 z m -12.66,18.63 c -4.14,4.14 -12.09,6.42 -17.7,6.83 a 66.76,66.76 0 0 0 9.87,-28.07 c 4.88,0.56 9.72,2.22 11.44,6.36 2.05,4.94 -0.72,12 -3.61,14.88 z"
     id="path14"
     inkscape:export-xdpi="300.207"
     inkscape:export-ydpi="300.207" />
  <path
     class="cls-6"
     d="m 274.35,223.22 a 5.67,5.67 0 0 1 5.66,5.43 c 0,0.36 0,0.73 0,1.1 12.75,1.25 17.99,7.25 20.12,12.42 3.63,8.78 -0.06,19.89 -5.73,25.56 -4,4 -10.53,7.23 -17.86,8.81 a 40,40 0 0 1 -8.24,0.93 23.51,23.51 0 0 1 -5.54,-0.6 67,67 0 0 1 -49.44,22.13 h -0.4 a 67.35,67.35 0 0 1 -67.13,-64.68 q -0.12,-3.34 0.08,-6.63 a 4.77,4.77 0 0 1 4.76,-4.49 h 123.72 m -4.58,44.41 c 5.61,-0.41 13.56,-2.69 17.7,-6.83 2.89,-2.88 5.66,-9.94 3.61,-14.88 -1.72,-4.14 -6.56,-5.8 -11.44,-6.36 a 66.76,66.76 0 0 1 -9.87,28.07 m 4.58,-47.1 H 150.63 a 7.48,7.48 0 0 0 -7.45,7 c -0.13,2.28 -0.16,4.6 -0.08,6.89 a 70,70 0 0 0 69.82,67.27 h 0.42 a 69.66,69.66 0 0 0 50.37,-21.91 27.74,27.74 0 0 0 4.59,0.36 42.28,42.28 0 0 0 8.81,-1 c 7.82,-1.68 14.81,-5.16 19.19,-9.54 a 28.78,28.78 0 0 0 7.06,-12.85 24.9,24.9 0 0 0 -0.74,-15.64 c -2.22,-5.34 -7.49,-11.91 -20.06,-13.79 a 8.35,8.35 0 0 0 -8.21,-6.82 z m 0.56,43.55 a 68.71,68.71 0 0 0 7,-21.42 c 2.83,0.63 5.65,1.87 6.66,4.29 1.57,3.79 -0.79,9.7 -3,11.95 -2.21,2.25 -6.55,4.17 -10.66,5.18 z"
     id="path16"
     inkscape:export-xdpi="300.207"
     inkscape:export-ydpi="300.207" />
  <path
     class="cls-7"
     d="m 218.22,152.6 c 0.69,1.27 1.32,2.56 1.9,3.89 0.58,1.33 1.1,2.66 1.6,4 0.5,1.34 0.91,2.75 1.29,4.16 0.18,0.71 0.35,1.42 0.5,2.14 0.08,0.36 0.15,0.73 0.22,1.09 l 0.1,0.54 0.08,0.55 c 0.06,0.37 0.12,0.74 0.16,1.11 0.04,0.37 0.09,0.74 0.12,1.12 0.03,0.38 0.06,0.75 0.07,1.13 0.01,0.38 0,0.76 0,1.15 a 20,20 0 0 1 -0.46,4.69 13.36,13.36 0 0 1 -2,4.66 11.16,11.16 0 0 1 -3.91,3.57 14.38,14.38 0 0 1 -2.34,1 21.69,21.69 0 0 1 -2.29,0.61 c -1.49,0.31 -2.88,0.51 -4.11,0.78 a 11.3,11.3 0 0 0 -1.69,0.5 6.27,6.27 0 0 0 -1.31,0.72 4.65,4.65 0 0 0 -1,1.07 5.12,5.12 0 0 0 -0.68,1.41 9,9 0 0 0 -0.34,1.7 14.82,14.82 0 0 0 0,1.89 23.31,23.31 0 0 0 0.6,4 c 0.15,0.67 0.33,1.34 0.52,2 0.19,0.66 0.4,1.35 0.61,2 0.43,1.35 0.91,2.7 1.37,4.06 a 32.57,32.57 0 0 1 -2.56,-3.49 31.76,31.76 0 0 1 -2.14,-3.84 c -0.31,-0.67 -0.59,-1.36 -0.85,-2.07 a 19.44,19.44 0 0 1 -0.63,-2.21 13,13 0 0 1 -0.33,-2.36 10.26,10.26 0 0 1 0.15,-2.52 8.57,8.57 0 0 1 0.86,-2.54 8.27,8.27 0 0 1 1.69,-2.23 9.11,9.11 0 0 1 2.27,-1.54 14,14 0 0 1 2.34,-0.88 c 1.52,-0.44 2.94,-0.68 4.22,-1 a 14.09,14.09 0 0 0 3.38,-1.2 7,7 0 0 0 1.29,-0.92 6.65,6.65 0 0 0 1.07,-1.17 10.41,10.41 0 0 0 1.44,-3.1 20,20 0 0 0 0.65,-3.74 c 0,-0.33 0.05,-0.65 0.06,-1 v -0.49 -0.51 c 0,-0.33 0,-0.67 0,-1 0,-0.33 0,-0.68 0,-1 0,-0.32 0,-0.68 0,-1 0,-0.32 0,-0.69 -0.06,-1 0,-0.69 -0.11,-1.37 -0.16,-2.07 -0.14,-1.38 -0.3,-2.77 -0.49,-4.16 -0.1,-0.7 -0.19,-1.4 -0.3,-2.1 l -0.15,-1.05 -0.16,-1.06 c -0.17,-1.45 -0.41,-2.89 -0.6,-4.29 z"
     id="path18"
     inkscape:export-xdpi="300.207"
     inkscape:export-ydpi="300.207" />
  <path
     class="cls-7"
     d="m 212.17,214.4 a 36.14,36.14 0 0 1 -1.35,-6.34 c -0.06,-0.54 -0.13,-1.08 -0.17,-1.62 -0.04,-0.54 -0.06,-1.09 -0.09,-1.64 -0.03,-0.55 0,-1.1 0,-1.65 a 7.68,7.68 0 0 1 0,-0.83 v -0.84 a 22.1,22.1 0 0 1 0.51,-3.38 c 0.06,-0.29 0.15,-0.57 0.23,-0.86 0.08,-0.29 0.17,-0.57 0.27,-0.85 a 13.31,13.31 0 0 1 0.73,-1.71 10.32,10.32 0 0 1 2.39,-3.17 c 0.27,-0.22 0.55,-0.44 0.84,-0.65 0.29,-0.21 0.6,-0.38 0.91,-0.55 a 9.23,9.23 0 0 1 2,-0.75 11.72,11.72 0 0 1 2,-0.29 c 0.64,0 1.25,0 1.82,0 1.15,0.07 2.19,0.2 3.08,0.24 a 9.6,9.6 0 0 0 1.21,0 3.89,3.89 0 0 0 0.93,-0.2 3.1,3.1 0 0 0 1.48,-1.2 7.1,7.1 0 0 0 0.95,-2.33 17.52,17.52 0 0 0 0.39,-2.89 c 0,-0.51 0,-1 0.06,-1.54 0.06,-0.54 0,-1 0,-1.56 0,-1.06 -0.06,-2.12 -0.07,-3.21 a 24.59,24.59 0 0 1 1.36,2.95 21,21 0 0 1 1,3.16 c 0.12,0.55 0.22,1.11 0.29,1.68 a 12.52,12.52 0 0 1 0.09,1.74 9.29,9.29 0 0 1 -0.74,3.73 6.73,6.73 0 0 1 -2.91,3.21 7.39,7.39 0 0 1 -2.07,0.75 11.65,11.65 0 0 1 -1.95,0.22 c -1.22,0 -2.28,-0.06 -3.24,-0.07 a 9.44,9.44 0 0 0 -2.49,0.21 4.29,4.29 0 0 0 -1,0.35 l -0.45,0.25 -0.42,0.31 a 6.44,6.44 0 0 0 -1.49,1.77 12.79,12.79 0 0 0 -0.63,1.16 c -0.1,0.2 -0.17,0.42 -0.27,0.63 -0.1,0.21 -0.19,0.42 -0.26,0.65 a 28.41,28.41 0 0 0 -0.84,2.79 l -0.18,0.73 c -0.06,0.24 -0.12,0.48 -0.17,0.73 -0.1,0.5 -0.2,1 -0.31,1.5 -0.16,1 -0.36,2 -0.5,3.06 -0.14,1.06 -0.3,2.08 -0.47,3.13 -0.09,0.52 -0.15,1.05 -0.23,1.58 -0.08,0.53 -0.14,1.06 -0.24,1.6 z"
     id="path20"
     inkscape:export-xdpi="300.207"
     inkscape:export-ydpi="300.207" />
  <path
     class="cls-7"
     d="m 155.11,227.21 h 9.21 a 2.07,2.07 0 0 1 1.92,2.88 c -5.21,12 -1.45,45.56 15.69,54.94 0,0 -32.57,-16.94 -28.89,-55.94 a 2.08,2.08 0 0 1 2.07,-1.88 z"
     id="path22"
     inkscape:export-xdpi="300.207"
     inkscape:export-ydpi="300.207" />
  <text
     xml:space="preserve"
     style="font-style:normal;font-weight:normal;font-size:40px;line-height:1.25;font-family:sans-serif;fill:#000000;fill-opacity:1;stroke:none"
     x="159.57143"
     y="338.85715"
     id="text856"
     inkscape:export-xdpi="300.207"
     inkscape:export-ydpi="300.207"><tspan
       sodipodi:role="line"
       id="tspan854"
       x="159.57143"
       y="338.85715"
       style="font-style:normal;font-variant:normal;font-weight:normal;font-stretch:normal;font-size:12px;font-family:Arial;-inkscape-font-specification:Arial">handelgroup.uga.edu</tspan></text>
</svg>
